<svg xmlns="http://www.w3.org/2000/svg" xmlns:xlink="http://www.w3.org/1999/xlink" viewBox="0 0 1920 1080"><defs><style>.cls-1,.cls-14,.cls-23,.cls-33,.cls-34,.cls-35,.cls-37,.cls-39,.cls-9{fill:none;}.cls-2{fill:#fff;}.cls-3{fill:#cdaf63;}.cls-4{fill:#cd996a;}.cls-5{fill:#986514;}.cls-6{fill:#cb973c;}.cls-7{fill:#663309;}.cls-8{fill:#d8b298;}.cls-9{stroke:#e0c13f;stroke-width:15px;}.cls-14,.cls-20,.cls-23,.cls-33,.cls-34,.cls-39,.cls-9{stroke-miterlimit:10;}.cls-10{fill:#e5c2aa;}.cls-11{fill:#e2bda3;}.cls-12{fill:#e0b89d;}.cls-13{fill:#663c20;}.cls-14,.cls-20,.cls-23,.cls-39{stroke:#000;}.cls-14,.cls-39{stroke-linecap:round;}.cls-15{fill:#274c1e;}.cls-16{fill:#1d3516;}.cls-17{fill:#bfe8e6;}.cls-18{fill:#aed1cf;}.cls-19{fill:#eae8c1;}.cls-20{fill:#110f0e;}.cls-21{fill:#383837;}.cls-22{fill:#545453;}.cls-23{stroke-width:8px;}.cls-24{fill:#d0f7f6;}.cls-25{fill:#c3fbff;}.cls-25,.cls-26{opacity:0.43;}.cls-26{fill:#ff9e88;}.cls-27{fill:#5e5e5d;}.cls-28{fill:#f45719;}.cls-29{fill:#dd5222;}.cls-30{fill:#777371;}.cls-31{fill:#ff7955;}.cls-31,.cls-32,.cls-34,.cls-35{opacity:0.5;}.cls-33{stroke:#5dabff;}.cls-33,.cls-34,.cls-35{stroke-width:13px;}.cls-34,.cls-35{stroke:#ff7955;}.cls-35,.cls-37{stroke-linejoin:round;}.cls-36{clip-path:url(#clip-path);}.cls-37{stroke:#1f77b4;stroke-linecap:square;}.cls-37,.cls-39{stroke-width:1.5px;}.cls-38{clip-path:url(#clip-path-2);}.cls-40{font-size:31px;font-family:MyriadPro-Regular, Myriad Pro;}.cls-41{clip-path:url(#clip-path-3);}.cls-42{clip-path:url(#clip-path-4);}.cls-43{clip-path:url(#clip-path-5);}</style><clipPath id="clip-path"><rect class="cls-1" x="820.77" y="32.01" width="324.9" height="304.91" transform="translate(-0.29 1.54) rotate(-0.09)"/></clipPath><clipPath id="clip-path-2"><rect class="cls-1" x="670.23" y="31.85" width="156.82" height="298.83" transform="translate(-0.67 2.78) rotate(-0.21)"/></clipPath><clipPath id="clip-path-3"><rect class="cls-1" x="1085.35" y="32.06" width="216.09" height="304.4"/></clipPath><clipPath id="clip-path-4"><rect class="cls-1" x="1310" y="31.91" width="261.05" height="302.1"/></clipPath><clipPath id="clip-path-5"><rect class="cls-1" x="1541.33" y="32.4" width="242.67" height="304.4"/></clipPath></defs><title>seismic survey</title><g id="Layer_2" data-name="Layer 2"><rect class="cls-2" width="1920" height="1080"/><rect class="cls-3" y="503.22" width="1920" height="235.64"/><path class="cls-4" d="M1920,400.82V539c-294.62-5.25-1655.63-29.6-1908.49-35.82L0,502.93V400.82Z"/><rect class="cls-5" y="803.15" width="1920" height="233.02"/><polygon class="cls-6" points="1920 647.65 1920 844.56 0 869.6 0 718.49 1920 647.65"/><rect class="cls-7" y="1003" width="1920" height="77.04"/><path class="cls-4" d="M720.42,400.78l-60.2,79.88L0,455.05V389.11c14.82-.33,74.12-6.59,82.52-6,9.21.63,42.26,0,51.43-.73s109.5-.26,124.36-.46,97.53-.71,115.85.46,83.49,9.05,101.89,9.69S697.51,399.58,720.42,400.78Z"/><path class="cls-8" d="M368,290.06c1,.19-13.92-4.56-14.67-4.31s-3-8.2-4.78-15.53,0-58.73,0-58.73c8,3.69,10.36.3,11.61,1.55s8,76.65,8,76.65"/><line class="cls-9" x1="345.6" y1="287.12" x2="536.5" y2="359.86"/><path class="cls-10" d="M364.56,290.23a2.92,2.92,0,0,1,2.91,1.76c1.46,3.41,4,10.4,1.81,13-3,3.5-16,.5-17.26-3s-3.26-9.51-.25-9.26,2.5,1.19,2.81,1.57-.19-1.82,1.25-1.57,4.71.25,3.64,1.69.49-2,2-1.62,1.73-2.73,2.73-2.54Z"/><path class="cls-11" d="M426.94,130.06c.19,2.81-7.5,4.12-9.75,10.13s-9.2,7.5-9.2,8.35.57,8.91-2.06,8.91-2.44-.56-4.5-1.5-.94,1.5-3.57,4.69-5.07,1.69-6.38,2.37-1.88,2.13-3,2.88-6.94.38-9,0c-1.57-.28-2.68-2.63-4.88-4.56a10.32,10.32,0,0,0-2.43-1.63c-10.17-4.81-11,5.07-11.1,5.59,0-.56-13.5.79-15.42-3.52s6.71-29.27,9.75-30.2c1.93-.59,6.66-5,9.76-9.28,1.79-2.49,3-5,2.9-6.67-.37-4.69,27.75-14.65,34.81-14.46S426.76,127.24,426.94,130.06Z"/><path class="cls-12" d="M374.59,161.33a10.32,10.32,0,0,0-2.43-1.63c-10.17-4.81-11,5.07-11.1,5.59,0-.56-13.5.79-15.42-3.52s6.71-29.27,9.75-30.2c1.93-.59,6.66-5,9.76-9.28l7.6,2.71C370.73,133,370.4,151.19,374.59,161.33Z"/><path class="cls-13" d="M427.18,135.19a1.34,1.34,0,0,1-2.08-.95c-.21-1.83-.74-4.21-2.1-5.69-2.06-2.25-1.12-8.08-9-9.29s-26.09,9.15-28.35,9.23,6.54-13-1.41-11.8c-3.71.55-8.31,8.93-10.73,11.42-2.77,2.84-3.3-.26-6.66-1.36-6.28-2.07-5.73-2.5-3.81-6.33s5.18-6.88,7.33-10.16,3.29-8,8.92-11.91,8.84-9.57,13.71-8.82,11.43,1.87,12.74,2.62a52.06,52.06,0,0,1,7.69,6.2c2.44,2.44,5.26,4.31,7.51,6.38s3,4.12,6,7.31,4.59-.75,5.2,5.35.52,8.54,0,10.6-.89,4.18-2.95,5.75C428.48,134.29,427.78,134.78,427.18,135.19Z"/><path class="cls-14" d="M404.05,140.94c1.13,3.88,3.4,4.06,3.82,4.13"/><path class="cls-10" d="M388,121.08a2.27,2.27,0,0,0,.69-1.58c.1-3.32-.67-5.56-3.44-4.54-3,1.12-7.16,2.71-7.27,7.35s-2.7,6.32-.25,8,3.25-4.87,4.77-5C383.62,125.17,386.63,122.37,388,121.08Z"/><path class="cls-10" d="M198.09,274.24c2.06,4.5,12.51,14.55,10.07,18.12s-8.63,7.88-15.57,9.94-25.89,22.14-29.65,28.52-12.38,19.33-13.88,20.27S165,366.85,165,366.85s18.57-19,26.27-21.39,20.26-18.95,23.64-21.11,24.2-10.79,25.89-18.29,4.13-21.58,4.13-24.21-38.65-6.75-38.65-6.75Z"/><path class="cls-8" d="M279.55,249.22c6.56,1.12,33.13,9,35,11.24s-5.63,19-5.25,26.64,3.75,31.15,3.75,38.28-.56,16.33-.56,16.33l21.76-4.13,3.94-.75s-.56-19.33,1.69-25.9,9.61-47.66,7.9-55.72-10.9-23.46-13.53-24.21-30.77-5.06-30.77-5.06l-26.27,18.95Z"/><path class="cls-15" d="M313,232.55l-44.19,27.53a1.9,1.9,0,0,1-2.55-.49c-2.86-3.87-10.81-14.26-13.41-13.95-1.45.16-2,8.68-2.72,17.95-.77,9.64-1.79,20.08-4.35,22.82a1.83,1.83,0,0,1-1.37.69c-6.57,0-29.09-4.69-34.53-6-4.25-1-15-.45-19.53-.15a1.91,1.91,0,0,1-2-1.91v-7.7c0-8.44,1.69-24,3.57-30.58s.38-15,.38-19.89a29.9,29.9,0,0,0-.72-5.27c-1.17-5.93-3.36-14.4-3.22-21.56.18-9.76,4.69-17.26,9.75-26.65l2.61-5.21a1.91,1.91,0,0,1,1.68-1.06l21.85-.47a1.64,1.64,0,0,1,.62.09l58.92,18.63a1.89,1.89,0,0,1,1.08.86l7.31,12.61L313.62,230A1.92,1.92,0,0,1,313,232.55Z"/><path class="cls-16" d="M313.12,232.46l-44.47,27.7a1.75,1.75,0,0,1-2.33-.44c-2.78-3.76-10.87-14.39-13.5-14.08-1.45.16-2,8.68-2.72,17.95-.63,7.85-1.42,16.23-3.07,20.55a1.75,1.75,0,0,1-2.94.56c-11.48-13-26.63-53-35-68a2.14,2.14,0,0,1-.16-.42c-1.44-6.05-14.34-19.91-14.2-27,.18-9.76-1.78-12.51,3.28-21.9l2.41-4.8a1.74,1.74,0,0,1,2.22-.84l57.26,23.42.26.08,31.19,7.42a1.72,1.72,0,0,1,1.11.82l21.22,36.62A1.74,1.74,0,0,1,313.12,232.46Z"/><path class="cls-17" d="M361,186.44l1.21,29.65c0,2.23-2.66,3.24-4.82,3.78-9.8,2.46-36.09,9.14-39.95,11l-.3.13a22,22,0,0,1-6.76,1.25h-.12a76.68,76.68,0,0,1-11.92-.3,4.67,4.67,0,0,0-.6-.06c-.87-.09-1.73-.19-2.57-.31-1.5-.21-2.93-.45-4.25-.72-8.5-1.75-25.27-2.5-30-7.5a276.78,276.78,0,0,0-22-20c-2.85-2.19-13.42-7.59-23-12.54-9-4.63-17.14-8.88-17.26-9.72-.25-1.76-1.5-17.27-2.25-20s-2.51-6-1-7.75,11.26-5.26,14.26-9,26.77-4.25,33-5.25,16-6.26,22-9.76,9.51-2.75,17.27-5.75,21-3.76,28.52-4.26c6.78-.45,23,1.79,29.75,2.92a19.18,19.18,0,0,1,3.4.91l3.82,1.45c2,.76,3.05.8,4.84,1.89,2,1.2,5.44,1.27,4.53,4.11l-2.35,8.61a6.12,6.12,0,0,0-.2,1.12c-.12,1.67.42,1.5-.25,5-.47,2.51-1.37,4.94-1,7.46a5.72,5.72,0,0,0,.11.57,4.46,4.46,0,0,0,1.1,2.63l3.49,2.32,2.52,1.85a4.85,4.85,0,0,1,2,4.18L361,186.16Z"/><path class="cls-18" d="M361,186.44l1.21,29.65c0,2.23-2.66,3.24-4.82,3.78-9.8,2.46-36.09,9.14-39.95,11l-.3.13a31.2,31.2,0,0,1-6.76,1.25h-.12a46.78,46.78,0,0,1-11.92-.3,4.67,4.67,0,0,0-.6-.06c-.87-.09-1.73-.19-2.57-.31-1.5-.21-2.93-.45-4.25-.72-8.5-1.75-25.27-2.5-30-7.5a276.78,276.78,0,0,0-22-20c-2.85-2.19-13.42-7.59-23-12.54,3.54-5.41,37.21,8.16,62.62,11.47,16.46,2.14,28.72-4.49,29.57-8.29,2.75-12.39,37.23-36.39,45.07-40.62a4.46,4.46,0,0,0,1.1,2.63l3.49,2.32,2.52,1.85a4.85,4.85,0,0,1,2,4.18L361,186.16Z"/><path class="cls-10" d="M323,202.24c-1.51,9.32-2.26,25.11,2.5,31.33s41.53,53.08,43.78,56.71,5.25,16.57,6.5,18.39a13.68,13.68,0,0,0,8,4.92c3.75.77,11.26,5.69,13.26,4.66s-2-7.77,0-8.55-3.6-11.91.58-10.87,1.92,2.33,4.42,3.36-1.5-9.58-2.75-10.1-9.51-4.66-12.76-6.21-34.52-53.61-34.77-58-1.34-16.23-.92-19.51S323,202.24,323,202.24Z"/><path class="cls-19" d="M151.31,346.58c4.13,4.13,12.95,15,15.57,16.52s-4.26,8.79-6.33,8-5.11-6.16-9.24-5.41-6.94.19-8.63-.56-1.94-2.81-1-4.5,4-4.93,5.14-7.18A75,75,0,0,1,151.31,346.58Z"/><path class="cls-20" d="M163.13,370.23c-2.06,2.43-7.58,6.56-8.48,10.69s-2.4,6.19-1.46,7.88,7.5,4.88,7.13,9.57.37,7.13,0,8.07-19.89,3-24.39,0-15.58-14.38-15.77-17.32.94-6.32,7.51-14.95,12.93-17.83,14-15.77S163.13,370.23,163.13,370.23Z"/><rect class="cls-19" x="311.21" y="330.07" width="28.33" height="24.77" rx="1.52"/><path class="cls-20" d="M308.62,348.23a2.22,2.22,0,0,1,2.12-2.43c7.38-.35,18.95-2.8,23.7-3.34,5.48-.63,6.19-.38,6.94,6.56s13.14,18.39,16.7,19.14,21,1.13,22.14,5.63a48.38,48.38,0,0,1,1.5,8.63c0,.75-45,.94-47.47,0s-29.64,2-29.83.64-2.25-16.75,1.88-20.33C309.32,360.11,309,352.24,308.62,348.23Z"/><ellipse class="cls-21" cx="526.79" cy="381.96" rx="3.7" ry="10.3" transform="translate(4.23 769.7) rotate(-72.52)"/><polyline class="cls-21" points="516.97 378.87 531.97 330.62 551.84 336.87 536.61 385.06"/><ellipse class="cls-22" cx="541.9" cy="333.74" rx="3.76" ry="10.42" transform="translate(60.8 750.38) rotate(-72.52)"/><line class="cls-23" x1="488.82" y1="333.58" x2="483.44" y2="347.55"/><line class="cls-23" x1="449.17" y1="318.42" x2="443.79" y2="332.39"/><line class="cls-23" x1="413.13" y1="304.92" x2="407.74" y2="318.89"/><path class="cls-24" d="M308.56,167a4.44,4.44,0,0,1,.15-1.36c1.82-7,5.25-16.51,12.28-16.27,7.26.25,18.77-2,22.77,0s10.76,7.26,12.26,10.76,2.5,10.76,2.25,14.26a8,8,0,0,1-.57,2.42,43.66,43.66,0,0,0-3.23,12.58c-.79,9-1.26,21.82-1.74,22s-17.85-3.68-30.23-5.54c-5.58-.83-5.94-1.65-7-3C313.34,200.16,308.78,172.19,308.56,167Z"/><path class="cls-13" d="M411,140.79a20.44,20.44,0,0,0-1.71-4.28,6.71,6.71,0,0,0-3.35-2.84h0a.4.4,0,0,1,.21-.76,8.08,8.08,0,0,1,2.48.8,8.45,8.45,0,0,1,2.14,1.62,21.57,21.57,0,0,1,3,4.21,1.51,1.51,0,1,1-2.58,1.56A2.2,2.2,0,0,1,411,140.79Z"/><polygon class="cls-25" points="1067.99 1080 639.24 1080 638.17 1067.76 611.93 900.91 589.85 760.5 571.73 645.31 532.79 397.69 536.89 402.85 697.15 608.11 768.1 698.98 855.14 810.47 958.8 943.24 1067.99 1080"/><polygon class="cls-26" points="1047.99 1080 1067.99 1080 1070.76 1080 1139.8 1002.96 1679.42 400.78 1046.2 400.86 739.04 400.78 722.28 514.81 689.34 738.99 661.65 927.47 650.56 1002.96 639.24 1080 1047.99 1080"/><rect class="cls-27" x="451.6" y="389.11" width="137.02" height="18.17"/><rect class="cls-28" x="729.91" y="379.44" width="35.45" height="8.18"/><rect class="cls-29" x="737.73" y="387.62" width="19.81" height="13.29"/><polygon class="cls-30" points="743.07 400.91 747.64 400.93 752.2 400.95 750.49 412.4 747.48 432.53 744.67 412.38 743.07 400.91"/><polygon class="cls-31" points="1043.97 406.94 1026.95 400.72 1046.81 400.83 1043.97 406.94"/><g class="cls-32"><path class="cls-33" d="M681.32,587.84a202.69,202.69,0,0,1-104.21,46q-3.9.51-7.79.89"/><path class="cls-33" d="M768.1,699A317.27,317.27,0,0,1,589.85,760.5"/><path class="cls-33" d="M855.14,810.47a457.87,457.87,0,0,1-243.21,90.44"/><path class="cls-33" d="M958.8,943.24a625.41,625.41,0,0,1-320.63,124.52"/></g><path class="cls-34" d="M1053.15,1086.6c-40.48-28.83-94.58-61.43-141.23-83.64-78.48-37.38-163.9-64.05-250.27-75.49"/><path class="cls-34" d="M689.34,739c182.52,24.63,360.48,101.81,499.34,209.42"/><path class="cls-34" d="M1338.36,781.37C1169,649.63,945.05,545.29,722.28,514.81"/><path class="cls-35" d="M1464.86,640.21C1348,549.07,1187.93,452.73,1046.2,400.86"/><path class="cls-35" d="M1175.75,260.57m418.67,239.35c-41.63-32.46-96.2-71.6-146-103.14"/><polygon class="cls-2" points="1041.04 400.71 1075.76 400.72 1057.56 385.9 1041.04 400.71"/><rect class="cls-28" x="959.38" y="380.24" width="35.45" height="8.18"/><rect class="cls-29" x="967.2" y="388.42" width="19.81" height="13.29"/><polygon class="cls-30" points="972.54 401.71 977.11 401.74 981.67 401.76 979.96 413.21 976.95 433.33 974.14 413.18 972.54 401.71"/><g id="line2d_14" data-name="line2d 14"><g class="cls-36"><path class="cls-37" d="M977.15,45.88V60l-.33.56-.72.55-1.16.56-3.09,1.12-2.92,1.11-3.55,1.67-1.58.84-.65.55-.11.28.08.28.26.27,1.08.56,1.71.55,4.49,1.1,6.6,1.38,6.51,1.1L999.27,75l7.15,1.38,3.35.83,1.5.55.74.55.08.28-.12.28-.29.27-1.11.56-1.77.56-3.82.84-6.87,1.12-15.54,2.24-7.56.85-13.19,1.13-13,1.13-4.38.56-2.46.56-.57.28-.23.27,0,.28.47.56.71.83.84,1.66,2.15,2.22.51.55.47.28.72.27,2.4.55,3.84.55,7.84.82,10.64,1.1,5.57.82,2.43.55,2.54.83,5.53,2.21,2.13,1.11,2.22,1.38,1.06.83.72.83.58,1.11.27.83V110l-.28.56-.63.55-1,.56-1.65.83-.57.56,0,.28.15.27.76.56,3.61,1.93,1.33.83,1.23.56,3.71,1.38.43.28.17.27-.13.28-.46.28-1.89.56-3,.56-7.83,1.12-11.56,1.4-11.38,1.13-27.11,2.54-12.52,1.41-5.83.84-2.59.56-1.3.55-.15.28.19.28.51.28L919,132l3.09.55,6.71.82,9.05.82,18.22,1.36,20.63,1.35,15.53.81,39.67,1.88,6.91.55,2.12.27,1.22.27.4.28-.3.28-.86.28-2.75.56-7.68,1.4-7.57,1.67-3.07.84-2,.84-1.28.55-2.2.56-4,.56-6.14.57-16.44,1.13-11.16.85-4.92.57-2.62.55-.57.28-.2.28.09.28.65.55,2.93,1.94.55.55.2.56-.06.28-.46.55-1.26,1.11-.1.28.06.28.23.28.88.55,1.39.83.12.28-.19.27-.58.28-1,.28-3.15.56-9.06,1.13-5.84.84-2.09.56-.4.27v.28l.4.28.8.27,2.61.55,5.76.83,10.51,1.37,2.87.55.92.28.52.27.14.28-.23.28-.56.28-1.79.55-4,1.12-1,.56-.1.27.17.28.41.28,1.34.55,3,1.11.44.27.21.28,0,.28-.31.27-.57.28-1.91.56-4.29.84-31,5.32-2.23.56-1.15.56-.13.27.14.28.4.28,1.5.55,2.27.55,4.7.83,6.2.82,10.32,1.09,12.28,1.09,11.1.82,18.1,1.08,23,1.35,9.58.82,4.2.55,4.33.82,8.6,1.93,1.5.55.39.28.15.28-.08.28-.28.27-1,.56-1.61.56-2.46.56-3.87.56-5.83.56-12.58.85-43.25,2.57-30.29,2-12.37.85-6.16.56-3.95.57-2,.55-.81.56-1.2,1.39-.89.56-1.22.55-2.49.84-3.44.84-4.8,1.11-.77.28-.43.28,0,.28.45.27.93.28,3.29.55,4.91.55,9.37.82,0,.27.34.56.74.55,1.17.55,1.63.56,3.34.82,4.67.83,6.65.82,9.13.82,15.62,1.08,27.71,1.63,47.73,2.7,9.7.81,4.44.55,2.55.55.51.28V233l-.51.27-1,.28-3.28.56-7.25.85-12.33,1.13-12.33.85-17.2.86-60.9,2.59-7.23.57-4.56.56L915,245.48l-8.57,2.23-.25.28.32.28,1,.27,1.76.28,5.78.54,12.84.82,18,1.08,9.9.81,6.72.83,11.62,1.64,20,2.47,2.11.55.55.28.29.27.08.56,0,.28.14.27.38.28.68.28,2.43.55,5.84.82,8.16,1.1,2.77.55,1.68.55.8.55.15.28v.28l-.16.28-.34.28-.56.27-1.9.56-3,.56-12.34,2-.84.28-.48.28-.16.28.08.27.73.84.07.27-.16.28-.44.28-1.81.56-3,.56-6,.84-12.33,1.4-30.92,3.38-5.42.84-3.67.84-2.41.84-2.49.83-3.71.84-3.9.84-.86.28-.45.28,0,.28.59.27,1.14.28,3.75.55L939.9,286,965,288.41l15.48,1.08,42.4,2.71,39.11,2.16,6.39.55,4.2.54,2.34.55.61.28.3.28v.28l-.27.27-.55.28L1073,298l-3.56.56-5.13.56-10.46.85-18.07,1.14-21.92,1.14-91.59,4.31L865,308.82l-14,.85-6.18.57-4.28.56-2.88.56-1.62.56-.28.27.13.28.58.28,1.09.27,3.73.55,5.76.55,12,.81,15.64.81,20.22.8,26.14.79,43.45,1.05,12.39.28"/></g></g><rect class="cls-28" x="1192.13" y="380.24" width="35.45" height="8.18"/><rect class="cls-29" x="1199.95" y="388.42" width="19.81" height="13.29"/><polygon class="cls-30" points="1205.29 401.71 1209.86 401.74 1214.42 401.76 1212.71 413.21 1209.7 433.33 1206.89 413.18 1205.29 401.71"/><polygon class="cls-2" points="1468.06 400.78 1445.8 400.78 1447.84 388.13 1468.06 400.78"/><rect class="cls-28" x="1429.34" y="380.57" width="35.45" height="8.18"/><rect class="cls-29" x="1437.16" y="388.75" width="19.81" height="13.29"/><polygon class="cls-30" points="1442.5 402.04 1447.07 402.06 1451.63 402.08 1449.92 413.53 1446.91 433.66 1444.1 413.5 1442.5 402.04"/><rect class="cls-28" x="1657.12" y="380.53" width="35.45" height="8.18"/><rect class="cls-29" x="1664.94" y="388.7" width="19.81" height="13.29"/><polygon class="cls-30" points="1670.28 402 1674.85 402.02 1679.41 402.04 1677.7 413.49 1674.69 433.61 1671.88 413.46 1670.28 402"/><g id="line2d_15" data-name="line2d 15"><g class="cls-38"><path class="cls-37" d="M747.6,45.44v2.72l-.14.54-.33.55-.53.54-1.4,1.1L743.87,52l-1.61,1.64-.71.82-.29.54,0,.27,0,.28.12.27.49.54.78.54,2,1.08,3,1.35,3,1.08,7.06,2.42,3.25,1.34,1.52.81.68.55.34.54,0,.27,0,.27-.13.28-.5.54L762,68l-1.74.82-3.11,1.1-7,2.2-3.43.83-6,1.11-5.88,1.11-2,.55-1.11.55-.26.27-.1.27v.28l.21.54.33.81.39,1.63,1,2.18.23.54.22.27.33.27,1.09.54,1.74.54,3.57.8,4.83,1.07,2.53.81,1.11.54,1.15.81,2.52,2.16,1,1.09,1,1.35.48.82.33.81.27,1.09.13.81v.55l-.13.54-.28.55-.45.54-1.64,1.64-.13.27,0,.28,0,.27.23.54.59.81,1.54,1.9,1,.81,1.35,1.09.19.27.07.27-.05.27-.18.27-.78.55-1.24.55-3.24,1.1L747.82,111l-4.69,1.1-6.47,1.39-18.06,2-11.14,1.4-4.78.83-2,.55-1,.55-.14.27.11.27.36.27.6.27,1.95.54,3,.53,6.15.8,10.62,1,12.7,1,15.62,1,38,2.3,5.17.53,3.56.53,2.41.53,2.48.81,1.2.54.73.54.12.27-.09.27-.3.28-1.23.55-1.93.55-3.84.83-5.06.83-4.52.56-9.24.85-16.17,1.15-20.11,1.43-12.7,1.14-13.3,1.41-6.62.84-3.33.55-2.24.56-1.13.54-.19.28,0,.27.24.27,1,.54,1.61.54,3.27.8,13.93,2.94,5.25.8,7.08.79,14.51,1.3,14.1,1.31,6.94.79,5.18.8,2.31.53,1.38.54.38.27.2.27.06.27-.06.28-.38.54-.62.55-.82.55-1.75.82-2.3.82-3.66,1.1-4.32,1.11-5.38,1.1-9.58,1.67-8.74,1.39-8.46,1.12-13.17,1.68-5.2.84L710,171.22l-3,.82-1.37.55-.44.28-.25.27,0,.27.14.27.34.27,1.18.54,1.73.54,3.44.8,4.51.8,5.89.8,10,1L750,180l27.18,2.35,12.17,1.31L800.1,185l3.4.53,2.28.54.6.27.2.27-.2.27-.57.28-2.1.55-4.72.83-7.74,1.12-7.12.84-11.92,1.13-15.39,1.42-9.7,1.12-12,1.41-24.19,2.54-5.06.83-3.71.83-2.76.83-1.08.54-.21.28,0,.27.3.27.56.27,1.8.54,3.85.8,18.69,3.46,12.72,1.86,26.54,4,5.54,1.07,4.07,1.07,5,1.61,2,.81,1.36.81,2.42,1.9,2.59,1.35,1.33.81.65.54.44.54.25.55,0,.27,0,.27-.14.27-.26.27-.92.55-1.55.55-2.19.55-4.38.84-7.53,1.11L762,229.76l-15.94,1.69-12.15,1.14-14.52,1.14-18.27,1.43-7.63.84-3.27.56-3.26.82-4.07,1.11-4.14,1.1-1.06.55-.11.27.19.27.46.27,1.62.54,3.5.8,4.39.8,6,.8,8.43.78,60.73,4.67,21.76,1.55L796,251.94l8.91,1.05,7.16,1.06,4.06.8,2,.54,1.35.54.69.54.09.27-.1.27-.28.28-.49.27-1.56.55-2.32.55-4.66.84-7.63,1.11-9,1.12-10.93,1.13-16.39,1.42L747.63,266l-10.16,1.13-14.92,2-7.47,1.11-4.47.84-3.4.83-2.53.82-1.16.55-.38.27,32.49.15,2.33.54,4.59.8,13.5,2.12,3.56.81,4.86,1.34,3.26,1.07,1.14.54.72.54.2.28.11.27v.27l-.07.27-.15.27-.54.55-.89.55-1.23.54-3.23,1.1-6.42,1.93-3.89.83-5.21.84-9.18,1.39-2.66.55-1.87.56-1.27.54L731,293.51l-1.7,1.1-.55.54-.31.55-.7,1.9v.28l.1.27.27.27.45.27,1.61.54,2.57.53,12.25,2.13,2.17.68"/></g></g><line class="cls-39" x1="747.64" y1="342.61" x2="747.64" y2="35.46"/><path d="M747.64,339.92l-5.41-3.29-.12.19,3.5,8.81c.68,3.07,1.35,6.14,2,9.21.67-3.07,1.35-6.14,2-9.21l3.5-8.81-.09-.19Z"/><line class="cls-39" x1="831.88" y1="35.21" x2="655.17" y2="35.21"/><path d="M829.19,35.21l-3.29,5.4.19.12,8.81-3.5,9.21-2-9.21-2-8.81-3.5-.19.09Z"/><text class="cls-40" transform="translate(761.22 355.57)">t</text><text class="cls-40" transform="translate(835.04 28.17)">a(t)</text><line class="cls-39" x1="976.96" y1="343.06" x2="976.96" y2="35.91"/><path d="M977,340.36l-5.4-3.28-.12.18,3.5,8.81c.67,3.07,1.35,6.14,2,9.22q1-4.62,2-9.22l3.5-8.81-.09-.18Z"/><line class="cls-39" x1="1061.21" y1="35.65" x2="884.49" y2="35.65"/><path d="M1058.52,35.65l-3.29,5.41.18.12,8.81-3.5,9.22-2-9.22-2-8.81-3.5-.18.09Z"/><text class="cls-40" transform="translate(990.55 356.02)">t</text><text class="cls-40" transform="translate(1064.36 28.62)">a(t)</text><g id="line2d_13" data-name="line2d 13"><g class="cls-41"><path class="cls-37" d="M1164.87,322.62h0"/><path class="cls-37" d="M1210.24,45.9l0,35.45-.15.28-.26.28-.9.55-1.44.55-3.83,1.11L1200,85.23l-4.39,1.66-2,.83-.8.56-.13.27.08.28.33.28,1.34.55,2.12.56,5.56,1.1,8.17,1.39,8.06,1.11,19.22,2.49,8.86,1.39,4.15.83,1.84.55.58.28.34.27.1.28-.14.28-.37.28-1.38.55-2.19.55-3,.56-5.79.83-16.24,1.94L1214,106l-10.25.83-31.68,2.21-4.24.56-1.24.27-.7.28-.28.28,0,.28.58.55.65.55.4.56.38.83.49.55,1.17.83,1,.83.41.56.36.28.6.27,1,.28,3.58.55,6.13.56,13.31.83,23.92,1.38,10.43.83,7.57.84,6,.83,3,.55,1.82.55.34.28-.07.28-.46.28-2,.55-4.6.83-7.59,1.11-7.09.83L1212.83,129l-32.17,2.77-16.05,1.66-6.52.83-2.59.55-.76.28-.41.28-.09.28.22.27.53.28,2,.55,3.37.56,4.72.55,9.11.83,18,1.39,13.55.83,18,.83,54.87,2.22,7.65.55,4,.55.92.28.4.28,0,.27-.19.28-.69.56-.9.55-1.31.55-2,.56-4.47.83-15.64,2.49-6.44.56-9.21.55-18.47.83L1199.37,155l-14.47.83-10.1.83-10.09,1.11-6.19.83-3.19.55-2.2.55-1.24.56-.32.28-.16.27,0,.28.09.28.18.27.7.56,1.31.55,2.24.56,3.48.55,4.94.55,10.1.83,21.17,1.39,20,1.39,28.74,2.21,31.92,2.22,8,.83,3.8.55,2.48.56.64.27.15.28-.43.28-1.08.27-1.81.28-5.87.56-8.68.55L1251.3,178l-26.92,1.38-26.24,1.39-25.86,1.11-32.22,1.38-14.13.83-6.73.56-4.91.55-3.49.55-2.32.56-1.2.55-.16.28.15.28.48.27.79.28,2.58.55,3.8.56,7.72.83,9.78.83,11.9.83,14.88.83,19,.83,31.63,1.11,39.13,1.39,11.24.55,7.35.55,3.56.56.62.27,0,.28-.38.28-1.44.55-2.94,1.11-2.58,1.11-3.48,1.11-2.33.83-1.51.83-1.18.55-2.14.56-3.65.55-8.14.83-11.51,1.11-3.78.55-1.16.28-.69.28-.22.27,0,.28.31.56v.27l-.27.28-.59.28L1222,211l-11.13,2.22-4.29,1.1-4.74.84-9,1.38-2.39.55-1.29.56-.27.28,0,.27.16.28.35.28,1.31.55,2.16.55,4.82.84,8.8,1.38,2.31.55,3.6,1.11,3.08.56,4.86.55,10,.83,9.94.83,4.59.56,2.29.55.32.28-.14.27-.55.28-2.11.56-3.38.55-4.83.55-10.2.84-22.85,1.66-5,.55-8.14,1.11-6.34.55-9.21.56L1138,237.31l-2.49.27-1.41.28-.42.28.39.27,2.39.56,5.72,1.11,2.84.83,3,.83,7.11,1.66,3.12,1.11,1.31.28,4.45.55,7.62.55,16.85.83,29.62,1.39,7.86.55,5,.56,2.9.55,1.46.56.36.27.17.28,0,.28-.18.27-.85.56-4.16,1.94-.21.27-.09.28,0,1.11-.23.55-.24.56,0,.27.2.28.42.28,1.61.55,3.92.83,5.27,1.11,1.75.55,1.81.84,1.9.83,5,1.94,3.47,1.93,1.54.84.3.27.12.28-.09.28-.32.27-.56.28-1.8.55-2.64.56-5.52.83-7.55.83-26,2.49L1201.59,275l-9.43.83-17.82,1.38-4.23.56-1,.28-.19.27.52.28,1.15.28,3.6.55,12.32,1.66,9.76,1.66,2.6.56,1.68.55.41.28.14.28-.08.27-.63.83,0,.28.31.28.65.28,2.43.55,5.76.83,5.91.83,2.58.56.64.27.16.28-.36.28-.86.27-3.13.56-7.37.83-10.83,1.11-3.88.55-2,.55-.31.28.11.28.45.28,1.56.55,3.37,1.11,1.6.83,1.33.83.5.55v.28l-.24.28-.52.28-1.88.55-7.59,1.66-.52.28-.13.28.24.27.55.28,2.63.83,1.64.55,1.06.56,1.54,1.11,1.69.55,2.87.55,6.37.84,10.79,1.1,15.84,1.39,33.47,2.77,10.64,1.11,5.88.83,2.09.55.3.28-.32.28-1,.27-1.63.28-5.23.55-7.55.56-14.63.83-29.27,1.38-15.84.76"/></g></g><g id="line2d_12" data-name="line2d 12"><g class="cls-42"><path class="cls-37" d="M1446.71,45.64l0,59.66-.15.27-.25.28-.91.55-1.44.55-3.84,1.1-3.63,1.09-4.4,1.65-2,.83-.8.55-.13.27.08.28.33.27,1.34.55,2.13.55,5.57,1.1,8.19,1.38,8.07,1.1,19.22,2.47,8.71,1.1,22.07,2.47,2.46.55,1.26.55.26.28.05.27-.15.28-.33.27-.55.28-1.83.55-3.11.55-4.62.55-6.24.55-12.3.82-15.7.83-26.2,1.1-49.79,1.92-15.44.83-11.08.82-17.89,1.65-7.46.83-3.3.55-1,.27-.59.28-.19.27.18.27.52.28.87.27,3,.55,5.21.55,8.15.55,11.46.55,22.35.83,54.61,1.92,37,1.38,56.5,1.92,9.82.55,5,.55.93.28.1.27-.51.28-2,.55L1535.7,152l-5.43.83-11.63,1.64-5.66.83-5.67.55-8.42.55-18,.82-40.3,1.65-9.41.55-6.52.55-4.1.55-2.43.55-1.42.55-.81.55-.23.28-.07.27,0,.28.16.27.7.55,1.26.55,1.87.55,3.83.83,5.39,1.1,1.61.55.32.27,0,.28-.35.27-1.43.55-2.49.82-.5.28-.18.27.19.28.56.27,2.23.55,3.38.55,6.73.83,8.86.82,14.93,1.1,14.41,1.1,5,.55,3.19.55,1.76.55,3.79,1.93.42.27.24.28,0,.27-.37.28-.73.27-2.58.55-3.86.55-7.49.83-9.12.82-11.1.82L1434,185.57l-30.15,1.92-27.53,1.65-12.7.83-5.91.55-3,.55-.37.27.33.28,1,.27,3.56.55,8,.83,16.52,1.37,31.86,2.48,13.37.82,21.81,1.1,21.6,1.1,11.87.82,5.29.55,3.6.55,2.48.55,2.56.83,1.15.55.76.55.65.82.69.83.76.82,0,.28-.23.27-.6.28-1,.27-3.61.55-5.6.55L1457.77,212l-25.43,2.75-14.95,1.1-18.48,1.37-7.81.83-3.49.55-2.27.55-1.15.55-.11.27.25.28.67.27,1.14.28,3.94.55,6.32.55,13.53.82,28.75,1.38,45.56,1.92,39.5,1.65,15.34.82,11.15.83,5.07.55,3.07.55.7.27.12.28-.49.27-1.09.28-3.92.55-5.94.55-11.89.82-15.29.83-19.62.82-33,1.1-59,1.93-65.45,2.47-11.1.55-7.24.55-2,.28-1,.27-.18.28.45.27,1.93.55,2,.55,1.28.55.93.55.65.27,1,.28,3.46.55,5.68.55,11.57.82,30.36,1.93,16.81.82,58.37,2.48,11.23.82,7.64.83,14.78,1.92,4.92.83,5.1,1.1,4.24,1.09,1.47.55.74.55.06.28-.09.27-.29.28-1.2.55-2.06.55-3,.55-4.11.55-8.16.82-20,1.65L1449,267.49l-7.52.83-3.7.55-2.24.55-.51.27-.1.28.24.27,1.25.55,3.72,1.1,4,1.1,4,.82,28.81,4.95,4.79.83,2.33.55,1.53.55.85.55.22.27.09.28v.27l-.12.28-.52.55-.87.55-1.76.82-2.18.83-2,.55-3.06.55-4.56.55-9.72.82-17.75,1.37-4.87.55-3.17.55-8.27,1.93L1408,295l-8.19.83-12.58,1.1-3.91.55-.75.27.15.28,1.06.27,4.45.55,21.26,1.93,3.55.55,3.72.82,17.42,4.12,4.44.55,9,.83,15.8,1.37,6.54.83,2.81.55,1.85.55,1.19.55.72.55.1.27-.1.28-.35.27-.61.28-2,.55-4.61.82L1453.44,317l-5.69,1.09-.94.25"/></g></g><line class="cls-39" x1="1210.16" y1="343.06" x2="1210.16" y2="35.91"/><path d="M1210.16,340.36l-5.4-3.28-.12.18,3.5,8.81c.67,3.07,1.35,6.14,2,9.22q1-4.62,2-9.22l3.5-8.81-.09-.18Z"/><line class="cls-39" x1="1294.41" y1="35.65" x2="1117.69" y2="35.65"/><path d="M1291.72,35.65l-3.29,5.41.18.12,8.81-3.5,9.22-2-9.22-2-8.81-3.5-.18.09Z"/><text class="cls-40" transform="translate(1223.75 356.02)">t</text><text class="cls-40" transform="translate(1297.56 28.62)">a(t)</text><line class="cls-39" x1="1446.93" y1="343.06" x2="1446.93" y2="35.91"/><path d="M1446.93,340.36l-5.41-3.28-.12.18,3.5,8.81c.68,3.07,1.35,6.14,2,9.22q1-4.62,2-9.22l3.5-8.81-.1-.18Z"/><line class="cls-39" x1="1531.17" y1="35.65" x2="1354.46" y2="35.65"/><path d="M1528.48,35.65l-3.29,5.41.19.12,8.81-3.5,9.21-2-9.21-2-8.81-3.5-.19.09Z"/><text class="cls-40" transform="translate(1460.51 356.02)">t</text><text class="cls-40" transform="translate(1534.33 28.62)">a(t)</text><g id="line2d_12-2" data-name="line2d 12"><g class="cls-43"><path class="cls-37" d="M1672.34,46.23l0,77.84-.16.28-.27.28-1,.55-1.54.55-4.08,1.11-3.87,1.11-4.68,1.66-2.1.83-.85.56-.15.27.1.28.34.28,1.43.55,2.22.56,2.93.55,3.78.55,7.61.84,10,.83,43.71,3.32,11.75,1.11,4.12.55,2.25.56.34.27-.18.28-.68.28-2.63.55-4,.56-8.21.83-11.19.83-14.55.83-45.65,2.21-25,1.11-38,1.39-21.3.83-10.53.55-6.67.56-1.9.27-1,.28-.31.28.32.27.82.28,2.8.56,6.18.83,10.83,1.1,16.33,1.39,12.85.83L1614,159l22.71.84,68.6,2.21,15.88.83,10.29.83,12.63,1.39,25.34,3.05,3,.55.55.28-.32.27-1.31.28-2.36.28-7.79.55-17.14.83-23,1.11-8.1.55-5.41.56-3.43.55-4.62,1.11-5,1.11-4.6.83-5.92.83-10.07,1.11-7.2.83-3.45.55-2,.56-.85.55-.12.28,0,.28.17.27.62.56,1,.55,1.5.56,3,.83,4.12,1.1,1.47.56,1.54.83,2.26,1.38.2.28-.06.28-.43.28-.89.27-3.41.56-5.67.55-11.56.83L1635,193.05l-7.86.83-5.37.83-6.89,1.38-8.58,1.94-4.06,1.11-1.39.55-.4.28-.13.28.2.28.6.27,1,.28,3.56.55,5.61.56,11.69.83,30.32,1.94,37.13,2.77,28.29,1.66,6.31.55,3.81.56,1.08.27.63.28.31.28.09.28-.09.55-.09.55v.83l-.06.28-.15.28-.55.55-1.33.83-2.11,1.11-1.63.56-2.74.55-4.39.55-6.22.56-16.18,1.11-15.31,1.1-7.84.83-3.49.56-3.64.83-9.09,2.49-6,1.11-7.53,1.39-4.59,1.1-4.7,1.39-1.29.55-.35.28-.08.28.27.27.57.28,1.91.55,6.62,1.39,6.62,1.38,5.41.84,33.18,4.15,27.26,2.77,7.13,1.11,4.37.83,2.24.55,1.52.56.86.55.42.56.09.27,0,.28-.11.28-.29.27-.56.28-.92.28-3.34.55-5.68.56-12.38.83-22.22,1.38-9.75.83-25.44,2.5-16.35,1.38-12.8.83-40.22,2.22-2,.28-.7.27.61.28,1.79.28,6.34.55,22.79,1.66,4.83.56,5.3.83,9,1.66,6.57,1.38,4.12.56,5.88.55,11.81.83,16.52,1.11,6.31.56,4.44.55,2.83.55,1.75.56,1.66.83,2.78,1.66,1.39.55,2.94.84,3.87,1.1,1.19.56,1.06.83.88.55,1.54.56,2.31.55,7.93,1.66,2.61.83,4.72,1.67,1.46.55.81.55.07.28-.17.28-.4.27-1.36.56-8.4,2.77-3.71,1.38-2.15.56-3.24.55-4.86.56-10.46.83-19.61,1.38-5.61.56-3.8.55-10.1,1.94-22.73,3.05-9.77.83-14.07,1.1-3.77.56-.44.28.61.27,1.61.28,5.65.55,20.86,1.67,4.31.55,4.38.83,12.32,2.77,3.29.83,3.37.56,4.9.55,9.94.83"/></g></g><line class="cls-39" x1="1672.35" y1="343.06" x2="1672.35" y2="35.91"/><path d="M1672.35,340.36l-5.41-3.28-.12.18,3.5,8.81c.68,3.07,1.35,6.14,2,9.22.67-3.08,1.35-6.15,2-9.22l3.5-8.81-.09-.18Z"/><line class="cls-39" x1="1756.59" y1="35.65" x2="1579.88" y2="35.65"/><path d="M1753.9,35.65l-3.29,5.41.18.12,8.82-3.5,9.21-2-9.21-2-8.82-3.5-.18.09Z"/><text class="cls-40" transform="translate(1685.93 356.02)">t</text><text class="cls-40" transform="translate(1759.75 28.62)">a(t)</text></g></svg>